<svg xmlns="http://www.w3.org/2000/svg" xmlns:xlink="http://www.w3.org/1999/xlink" width="400" zoomAndPan="magnify" viewBox="0 0 300 149.999998" height="200" preserveAspectRatio="xMidYMid meet" version="1.0"><defs><g/><clipPath id="3003536040"><rect x="0" width="125" y="0" height="89"/></clipPath><clipPath id="e68f5bd079"><rect x="0" width="175" y="0" height="118"/></clipPath></defs><g transform="matrix(1, 0, 0, 1, 30, 24)"><g clip-path="url(#3003536040)"><g fill="currentColor" fill-opacity="1"><g transform="translate(2.582507, 73.853415)"><g><path d="M 7.40625 0 C 7.03125 -0.0820312 6.878906 -0.546875 6.953125 -1.390625 C 6.941406 -1.617188 7.019531 -2.023438 7.1875 -2.609375 C 7.363281 -3.203125 7.515625 -3.613281 7.640625 -3.84375 C 7.734375 -3.988281 7.734375 -4.109375 7.640625 -4.203125 C 7.640625 -4.242188 7.664062 -4.265625 7.71875 -4.265625 C 7.71875 -4.265625 7.867188 -4.503906 8.171875 -4.984375 L 8.640625 -5.84375 C 8.691406 -5.925781 8.75 -6.050781 8.8125 -6.21875 C 8.875 -6.382812 8.90625 -6.488281 8.90625 -6.53125 C 8.894531 -6.625 8.9375 -6.675781 9.03125 -6.6875 C 9.03125 -6.6875 9.039062 -6.695312 9.0625 -6.71875 C 9.082031 -6.75 9.09375 -6.785156 9.09375 -6.828125 C 9.09375 -6.960938 9.179688 -7.078125 9.359375 -7.171875 C 9.546875 -7.367188 9.640625 -7.515625 9.640625 -7.609375 C 9.640625 -7.660156 9.738281 -7.875 9.9375 -8.25 C 10.132812 -8.625 10.363281 -9.050781 10.625 -9.53125 C 10.894531 -10.007812 11.117188 -10.363281 11.296875 -10.59375 L 11.625 -11.171875 L 12.03125 -11.71875 C 12.125 -11.914062 12.171875 -12.039062 12.171875 -12.09375 C 12.171875 -12.132812 12.191406 -12.191406 12.234375 -12.265625 C 12.273438 -12.335938 12.316406 -12.394531 12.359375 -12.4375 C 12.503906 -12.53125 12.578125 -12.625 12.578125 -12.71875 C 12.566406 -12.757812 12.6875 -12.960938 12.9375 -13.328125 C 13.1875 -13.691406 13.445312 -14.050781 13.71875 -14.40625 C 13.988281 -14.757812 14.144531 -14.957031 14.1875 -15 L 14.515625 -15.5 L 15.390625 -16.65625 C 15.472656 -16.789062 15.601562 -17.007812 15.78125 -17.3125 C 15.96875 -17.625 16.128906 -17.875 16.265625 -18.0625 L 17.421875 -19.5 L 18.34375 -20.765625 L 19.140625 -21.78125 L 19.8125 -22.703125 L 21.03125 -24.125 C 22.113281 -25.507812 22.648438 -26.222656 22.640625 -26.265625 C 22.640625 -26.316406 22.6875 -26.347656 22.78125 -26.359375 C 22.832031 -26.398438 22.878906 -26.441406 22.921875 -26.484375 C 22.960938 -26.535156 23.007812 -26.582031 23.0625 -26.625 C 23.144531 -26.8125 23.445312 -27.25 23.96875 -27.9375 C 24.488281 -28.632812 25.140625 -29.472656 25.921875 -30.453125 C 26.703125 -31.429688 27.503906 -32.398438 28.328125 -33.359375 L 29.46875 -34.703125 L 29.875 -35.21875 C 30.363281 -35.738281 30.96875 -36.390625 31.6875 -37.171875 C 32.414062 -37.960938 33.160156 -38.789062 33.921875 -39.65625 C 34.691406 -40.519531 35.351562 -41.285156 35.90625 -41.953125 L 36.234375 -42.390625 L 36.859375 -42.953125 C 37.347656 -43.523438 37.832031 -44.070312 38.3125 -44.59375 C 38.789062 -45.125 39.023438 -45.414062 39.015625 -45.46875 L 39.015625 -45.53125 C 39.054688 -45.488281 39.144531 -45.539062 39.28125 -45.6875 L 40.109375 -46.46875 C 40.378906 -46.71875 40.84375 -47.164062 41.5 -47.8125 C 42.164062 -48.457031 42.835938 -49.132812 43.515625 -49.84375 C 44.191406 -50.5625 44.660156 -51.066406 44.921875 -51.359375 C 45.285156 -51.742188 45.46875 -52.003906 45.46875 -52.140625 L 45.59375 -52.359375 C 45.644531 -52.367188 45.738281 -52.488281 45.875 -52.71875 C 46 -52.90625 45.992188 -53.023438 45.859375 -53.078125 C 45.523438 -53.335938 44.898438 -53.5 43.984375 -53.5625 C 43.078125 -53.632812 41.601562 -53.644531 39.5625 -53.59375 C 38.488281 -53.5625 37.359375 -53.503906 36.171875 -53.421875 C 34.984375 -53.335938 33.945312 -53.257812 33.0625 -53.1875 C 32.175781 -53.113281 31.6875 -53.054688 31.59375 -53.015625 C 31.5625 -52.960938 31.460938 -52.929688 31.296875 -52.921875 C 31.140625 -52.921875 30.988281 -52.921875 30.84375 -52.921875 C 30.5625 -52.910156 30.15625 -52.875 29.625 -52.8125 C 29.09375 -52.75 28.59375 -52.671875 28.125 -52.578125 L 25.484375 -52.21875 C 25.015625 -52.207031 24.203125 -52.085938 23.046875 -51.859375 C 21.890625 -51.640625 20.742188 -51.394531 19.609375 -51.125 C 18.472656 -50.863281 17.675781 -50.660156 17.21875 -50.515625 L 16.1875 -50.125 C 15.769531 -50.03125 15.132812 -49.828125 14.28125 -49.515625 C 13.4375 -49.210938 12.78125 -48.960938 12.3125 -48.765625 C 11.757812 -48.554688 11.351562 -48.460938 11.09375 -48.484375 C 10.84375 -48.503906 10.851562 -48.632812 11.125 -48.875 C 11.164062 -48.96875 11.425781 -49.113281 11.90625 -49.3125 C 12.394531 -49.507812 12.957031 -49.722656 13.59375 -49.953125 C 14.238281 -50.179688 14.773438 -50.367188 15.203125 -50.515625 L 15.75 -50.671875 C 16.03125 -50.773438 16.523438 -50.929688 17.234375 -51.140625 C 17.953125 -51.347656 18.398438 -51.472656 18.578125 -51.515625 L 20.171875 -51.921875 C 20.734375 -52.035156 21.3125 -52.144531 21.90625 -52.25 C 22.507812 -52.363281 23.394531 -52.503906 24.5625 -52.671875 L 27.125 -53.03125 L 29.921875 -53.453125 L 32.34375 -53.734375 L 33.390625 -53.828125 L 35.140625 -54.03125 L 38 -54.25 C 38.414062 -54.300781 39.046875 -54.328125 39.890625 -54.328125 C 40.734375 -54.328125 41.550781 -54.328125 42.34375 -54.328125 C 43.132812 -54.328125 43.644531 -54.304688 43.875 -54.265625 L 44.921875 -54.15625 C 45.335938 -54.164062 45.640625 -54.128906 45.828125 -54.046875 C 45.929688 -53.953125 46.050781 -53.910156 46.1875 -53.921875 C 46.425781 -53.921875 46.671875 -53.851562 46.921875 -53.71875 C 47.179688 -53.59375 47.335938 -53.460938 47.390625 -53.328125 C 47.546875 -52.953125 46.921875 -52.023438 45.515625 -50.546875 L 43.8125 -48.890625 C 43.488281 -48.554688 43.101562 -48.160156 42.65625 -47.703125 C 42.207031 -47.253906 41.820312 -46.882812 41.5 -46.59375 C 40.90625 -46.007812 40.066406 -45.144531 38.984375 -44 C 37.898438 -42.851562 36.992188 -41.875 36.265625 -41.0625 C 35.640625 -40.289062 34.863281 -39.4375 33.9375 -38.5 C 33.007812 -37.570312 32.09375 -36.582031 31.1875 -35.53125 L 26.3125 -29.875 C 25.90625 -29.4375 25.363281 -28.726562 24.6875 -27.75 C 24.019531 -26.78125 23.460938 -26.007812 23.015625 -25.4375 L 21.34375 -23.375 L 20.046875 -21.875 L 19.109375 -20.59375 C 18.753906 -20.113281 18.382812 -19.640625 18 -19.171875 C 17.625 -18.703125 17.1875 -18.128906 16.6875 -17.453125 C 16.507812 -17.171875 16.320312 -16.875 16.125 -16.5625 C 15.925781 -16.257812 15.78125 -16.054688 15.6875 -15.953125 L 15.03125 -15.03125 L 14.015625 -13.609375 L 13.078125 -12.171875 L 12.34375 -10.96875 L 11.9375 -10.265625 L 11.609375 -9.703125 L 11.140625 -8.84375 L 10.265625 -7.421875 L 9.265625 -5.640625 L 8.625 -4.375 C 8.269531 -3.613281 7.984375 -2.859375 7.765625 -2.109375 C 7.554688 -1.359375 7.546875 -0.960938 7.734375 -0.921875 C 7.828125 -0.921875 8.054688 -1.050781 8.421875 -1.3125 C 8.785156 -1.582031 9.171875 -1.898438 9.578125 -2.265625 C 9.984375 -2.628906 10.28125 -2.90625 10.46875 -3.09375 L 11.21875 -3.75 L 12.921875 -5.1875 L 13.53125 -5.703125 L 17.484375 -9.09375 L 18.515625 -9.953125 L 19.1875 -10.609375 L 19.875 -11.1875 C 19.914062 -11.1875 20.046875 -11.304688 20.265625 -11.546875 C 20.453125 -11.742188 20.570312 -11.84375 20.625 -11.84375 C 20.664062 -11.84375 20.742188 -11.898438 20.859375 -12.015625 C 20.972656 -12.140625 21.300781 -12.460938 21.84375 -12.984375 C 22.15625 -13.273438 22.539062 -13.625 23 -14.03125 C 23.457031 -14.445312 23.863281 -14.8125 24.21875 -15.125 C 24.582031 -15.4375 24.765625 -15.59375 24.765625 -15.59375 L 30.546875 -21.1875 L 32.53125 -23.0625 C 32.976562 -23.4375 33.710938 -24.148438 34.734375 -25.203125 C 35.753906 -26.265625 37.441406 -28.019531 39.796875 -30.46875 L 47.265625 -38.234375 C 48.296875 -39.328125 49.035156 -40.144531 49.484375 -40.6875 C 49.941406 -41.238281 50.210938 -41.675781 50.296875 -42 C 50.390625 -42.289062 50.453125 -42.460938 50.484375 -42.515625 C 50.578125 -42.609375 50.703125 -42.65625 50.859375 -42.65625 C 51.023438 -42.664062 51.132812 -42.625 51.1875 -42.53125 C 51.289062 -42.289062 51.273438 -41.960938 51.140625 -41.546875 C 51.015625 -41.128906 50.84375 -40.867188 50.625 -40.765625 C 50.570312 -40.722656 50.429688 -40.613281 50.203125 -40.4375 C 49.972656 -40.269531 49.742188 -40.066406 49.515625 -39.828125 L 44.015625 -34.21875 C 43.890625 -34.070312 43.78125 -34 43.6875 -34 C 43.632812 -34 43.523438 -33.925781 43.359375 -33.78125 C 43.203125 -33.632812 43.125 -33.539062 43.125 -33.5 C 43.175781 -33.445312 42.769531 -32.992188 41.90625 -32.140625 C 41.769531 -31.984375 41.441406 -31.617188 40.921875 -31.046875 C 40.398438 -30.472656 39.835938 -29.863281 39.234375 -29.21875 C 38.628906 -28.570312 38.097656 -28 37.640625 -27.5 C 37.179688 -27 36.953125 -26.75 36.953125 -26.75 C 36.953125 -26.695312 36.929688 -26.671875 36.890625 -26.671875 C 36.835938 -26.671875 36.710938 -26.5625 36.515625 -26.34375 C 36.316406 -26.132812 36.078125 -25.882812 35.796875 -25.59375 C 35.523438 -25.3125 35.273438 -25.0625 35.046875 -24.84375 C 34.828125 -24.625 34.691406 -24.515625 34.640625 -24.515625 C 34.640625 -24.515625 34.582031 -24.46875 34.46875 -24.375 C 34.363281 -24.28125 34.265625 -24.179688 34.171875 -24.078125 C 34.078125 -23.941406 33.972656 -23.820312 33.859375 -23.71875 C 33.753906 -23.625 33.675781 -23.550781 33.625 -23.5 C 33.488281 -23.5 33.378906 -23.382812 33.296875 -23.15625 L 32.828125 -22.65625 L 32.1875 -22.21875 L 28.65625 -18.84375 L 27.03125 -17.328125 L 26.421875 -16.75 C 26.054688 -16.375 25.78125 -16.113281 25.59375 -15.96875 C 25.414062 -15.820312 25.28125 -15.75 25.1875 -15.75 C 25.09375 -15.738281 25.046875 -15.660156 25.046875 -15.515625 C 25.046875 -15.421875 24.910156 -15.28125 24.640625 -15.09375 L 22.40625 -12.9375 L 21.515625 -12.078125 L 20.21875 -10.984375 L 19.34375 -10.125 C 19.101562 -9.882812 18.804688 -9.59375 18.453125 -9.25 C 18.097656 -8.914062 17.738281 -8.609375 17.375 -8.328125 L 16.625 -7.671875 L 15.609375 -6.734375 L 14.25 -5.578125 C 13.65625 -5.046875 13.3125 -4.753906 13.21875 -4.703125 C 13.03125 -4.609375 12.800781 -4.414062 12.53125 -4.125 L 11.171875 -2.96875 L 9.328125 -1.3125 C 9.273438 -1.175781 9.179688 -1.101562 9.046875 -1.09375 C 9.046875 -1.09375 9 -1.054688 8.90625 -0.984375 C 8.820312 -0.910156 8.734375 -0.828125 8.640625 -0.734375 C 8.097656 -0.253906 7.6875 -0.0078125 7.40625 0 Z M 7.40625 0 "/></g></g></g><g fill="currentColor" fill-opacity="1"><g transform="translate(43.135743, 72.702191)"><g><path d="M 0.984375 -19.09375 C 0.753906 -19.082031 0.570312 -19.191406 0.4375 -19.421875 C 0.238281 -19.648438 0.179688 -19.910156 0.265625 -20.203125 C 0.265625 -20.472656 0.328125 -20.703125 0.453125 -20.890625 L 0.640625 -21.390625 C 0.640625 -21.429688 0.46875 -21.34375 0.125 -21.125 C -0.21875 -20.90625 -0.519531 -20.675781 -0.78125 -20.4375 C -1.0625 -20.25 -1.460938 -20.003906 -1.984375 -19.703125 C -2.515625 -19.410156 -2.875 -19.257812 -3.0625 -19.25 C -3.476562 -19.238281 -3.691406 -19.375 -3.703125 -19.65625 C -3.703125 -19.789062 -3.546875 -20.003906 -3.234375 -20.296875 C -2.828125 -20.679688 -2.320312 -21.066406 -1.71875 -21.453125 C -1.125 -21.847656 -0.578125 -22.191406 -0.078125 -22.484375 C 0.515625 -22.828125 0.890625 -23.023438 1.046875 -23.078125 C 1.210938 -23.128906 1.320312 -23.085938 1.375 -22.953125 C 1.382812 -22.859375 1.503906 -22.8125 1.734375 -22.8125 C 2.148438 -22.820312 2.265625 -22.671875 2.078125 -22.359375 C 1.898438 -22.054688 1.75 -21.8125 1.625 -21.625 C 1.4375 -21.4375 1.265625 -21.164062 1.109375 -20.8125 C 0.960938 -20.457031 0.960938 -20.117188 1.109375 -19.796875 C 1.171875 -19.648438 1.347656 -19.617188 1.640625 -19.703125 C 1.941406 -19.785156 2.09375 -19.828125 2.09375 -19.828125 C 2.5625 -19.929688 3.300781 -20.207031 4.3125 -20.65625 C 5.320312 -21.101562 6.585938 -21.675781 8.109375 -22.375 L 8.25 -22.4375 L 8.453125 -22.4375 L 8.515625 -22.390625 C 8.609375 -22.335938 8.65625 -22.273438 8.65625 -22.203125 C 8.65625 -22.140625 8.609375 -22.082031 8.515625 -22.03125 L 4.609375 -20.09375 C 3.960938 -19.757812 3.367188 -19.515625 2.828125 -19.359375 C 2.296875 -19.203125 2.03125 -19.125 2.03125 -19.125 L 1.828125 -19.109375 C 1.554688 -19.066406 1.273438 -19.0625 0.984375 -19.09375 Z M -2.9375 -19.890625 L -2.53125 -20.03125 C -2.25 -20.175781 -1.878906 -20.394531 -1.421875 -20.6875 C -0.960938 -20.988281 -0.710938 -21.164062 -0.671875 -21.21875 C -0.492188 -21.394531 -0.175781 -21.613281 0.28125 -21.875 C 0.5625 -21.96875 0.703125 -22.0625 0.703125 -22.15625 C 0.703125 -22.25 0.65625 -22.28125 0.5625 -22.25 C 0.46875 -22.226562 0.234375 -22.097656 -0.140625 -21.859375 C -0.585938 -21.660156 -1.039062 -21.390625 -1.5 -21.046875 C -1.957031 -20.703125 -2.300781 -20.410156 -2.53125 -20.171875 Z M -2.9375 -19.890625 "/></g></g></g><g fill="currentColor" fill-opacity="1"><g transform="translate(52.070018, 72.448565)"><g><path d="M 3.59375 -18.828125 C 2.75 -18.710938 2.132812 -18.804688 1.75 -19.109375 C 1.613281 -19.203125 1.515625 -19.410156 1.453125 -19.734375 C 1.398438 -20.066406 1.421875 -20.320312 1.515625 -20.5 L 1.640625 -20.71875 L 1.640625 -20.78125 L 1.78125 -21.0625 L 1.703125 -21.0625 C 1.378906 -20.863281 0.804688 -20.53125 -0.015625 -20.0625 C -0.835938 -19.601562 -1.410156 -19.253906 -1.734375 -19.015625 C -2.046875 -18.921875 -2.203125 -18.875 -2.203125 -18.875 C -2.347656 -18.875 -2.457031 -18.925781 -2.53125 -19.03125 C -2.601562 -19.132812 -2.617188 -19.234375 -2.578125 -19.328125 L -2.59375 -19.546875 C -2.175781 -19.972656 -1.859375 -20.472656 -1.640625 -21.046875 L -1.171875 -21.6875 C -0.773438 -22.300781 -0.429688 -22.453125 -0.140625 -22.140625 C 0.00390625 -21.953125 0.0078125 -21.71875 -0.125 -21.4375 L -0.59375 -20.65625 L 1.625 -21.6875 C 1.75 -21.78125 1.894531 -21.863281 2.0625 -21.9375 C 2.226562 -22.019531 2.332031 -22.082031 2.375 -22.125 C 2.875 -22.519531 3.148438 -22.53125 3.203125 -22.15625 C 3.265625 -21.78125 3.160156 -21.425781 2.890625 -21.09375 C 2.441406 -20.613281 2.269531 -20.238281 2.375 -19.96875 C 2.394531 -19.1875 4.0625 -19.347656 7.375 -20.453125 C 7.75 -20.554688 8.25 -20.742188 8.875 -21.015625 C 9.5 -21.296875 10.0625 -21.535156 10.5625 -21.734375 C 11.300781 -22.078125 11.820312 -22.300781 12.125 -22.40625 C 12.425781 -22.507812 12.597656 -22.539062 12.640625 -22.5 C 12.867188 -22.414062 12.914062 -22.320312 12.78125 -22.21875 C 12.65625 -22.125 12.40625 -22 12.03125 -21.84375 C 11.75 -21.75 11.550781 -21.675781 11.4375 -21.625 C 11.320312 -21.582031 11.128906 -21.484375 10.859375 -21.328125 L 10.4375 -21.109375 L 9.6875 -20.734375 L 8.71875 -20.296875 C 8.71875 -20.296875 8.265625 -20.128906 7.359375 -19.796875 C 6.460938 -19.472656 5.695312 -19.234375 5.0625 -19.078125 Z M 3.59375 -18.828125 "/></g></g></g><g fill="currentColor" fill-opacity="1"><g transform="translate(65.192239, 72.076052)"><g><path d="M 1.140625 -16.671875 C 1.046875 -16.617188 0.925781 -16.625 0.78125 -16.6875 C 0.644531 -16.757812 0.550781 -16.882812 0.5 -17.0625 C 0.5 -17.15625 0.675781 -17.460938 1.03125 -17.984375 C 1.382812 -18.515625 1.828125 -19.117188 2.359375 -19.796875 C 2.898438 -20.484375 3.40625 -21.125 3.875 -21.71875 C 4.351562 -22.320312 4.710938 -22.738281 4.953125 -22.96875 C 5.117188 -23.125 5.257812 -23.269531 5.375 -23.40625 C 5.488281 -23.550781 5.546875 -23.625 5.546875 -23.625 C 5.492188 -23.625 5.363281 -23.5625 5.15625 -23.4375 C 4.957031 -23.3125 4.703125 -23.148438 4.390625 -22.953125 L 2.046875 -21.4375 L 1.4375 -21.0625 L 0.734375 -20.6875 C 0.554688 -20.59375 0.410156 -20.492188 0.296875 -20.390625 C 0.179688 -20.296875 0.0976562 -20.25 0.046875 -20.25 L -0.234375 -20.109375 C -0.492188 -19.910156 -0.851562 -19.6875 -1.3125 -19.4375 C -1.78125 -19.195312 -2.195312 -19.023438 -2.5625 -18.921875 C -2.925781 -18.773438 -3.15625 -18.789062 -3.25 -18.96875 C -3.351562 -19.15625 -3.296875 -19.410156 -3.078125 -19.734375 C -2.804688 -20.160156 -2.335938 -20.6875 -1.671875 -21.3125 C -1.015625 -21.945312 -0.460938 -22.382812 -0.015625 -22.625 C 1.265625 -23.40625 2.148438 -23.5 2.640625 -22.90625 L 2.84375 -22.703125 L 3.328125 -23 L 4.421875 -23.734375 C 4.609375 -23.828125 4.847656 -23.96875 5.140625 -24.15625 C 5.441406 -24.351562 5.75 -24.53125 6.0625 -24.6875 C 7.269531 -25.332031 8.164062 -25.960938 8.75 -26.578125 L 11.390625 -29.453125 L 12.078125 -30.15625 C 12.609375 -30.6875 12.988281 -31.070312 13.21875 -31.3125 C 13.445312 -31.550781 13.765625 -31.910156 14.171875 -32.390625 C 14.660156 -32.960938 15.164062 -33.515625 15.6875 -34.046875 C 16.21875 -34.578125 16.644531 -34.941406 16.96875 -35.140625 L 18.109375 -36.078125 C 18.285156 -36.265625 18.5 -36.453125 18.75 -36.640625 C 19.007812 -36.835938 19.207031 -36.984375 19.34375 -37.078125 C 20.070312 -37.523438 20.46875 -37.5625 20.53125 -37.1875 C 20.570312 -37 20.375 -36.570312 19.9375 -35.90625 C 19.394531 -35.15625 18.585938 -34.203125 17.515625 -33.046875 C 17.203125 -32.671875 16.664062 -32.15625 15.90625 -31.5 C 15.15625 -30.84375 14.578125 -30.367188 14.171875 -30.078125 L 13.15625 -29.21875 C 12.96875 -29.03125 12.644531 -28.765625 12.1875 -28.421875 C 11.738281 -28.078125 11.394531 -27.835938 11.15625 -27.703125 L 10.140625 -26.90625 L 9.1875 -26.109375 L 7.953125 -24.890625 C 7.367188 -24.398438 6.613281 -23.601562 5.6875 -22.5 C 4.757812 -21.40625 3.847656 -20.242188 2.953125 -19.015625 Z M 11.90625 -28.6875 L 13.0625 -29.640625 L 14.15625 -30.578125 C 14.382812 -30.765625 14.679688 -31.015625 15.046875 -31.328125 C 15.410156 -31.648438 15.75 -31.953125 16.0625 -32.234375 C 16.875 -33.046875 17.445312 -33.628906 17.78125 -33.984375 C 18.113281 -34.347656 18.441406 -34.75 18.765625 -35.1875 C 19.253906 -35.84375 19.421875 -36.144531 19.265625 -36.09375 C 19.109375 -36.039062 18.578125 -35.65625 17.671875 -34.9375 L 16.78125 -34.140625 L 16.234375 -33.5625 C 15.597656 -32.988281 15.082031 -32.414062 14.6875 -31.84375 L 13.796875 -30.921875 C 13.109375 -30.296875 12.570312 -29.753906 12.1875 -29.296875 C 11.8125 -28.847656 11.71875 -28.644531 11.90625 -28.6875 Z M -1.890625 -20 C -1.835938 -20 -1.707031 -20.054688 -1.5 -20.171875 C -1.300781 -20.296875 -1.085938 -20.425781 -0.859375 -20.5625 C -0.210938 -20.914062 0.15625 -21.097656 0.25 -21.109375 C 0.289062 -21.148438 0.363281 -21.207031 0.46875 -21.28125 C 0.582031 -21.351562 0.734375 -21.4375 0.921875 -21.53125 C 1.203125 -21.6875 1.421875 -21.859375 1.578125 -22.046875 C 1.734375 -22.234375 1.757812 -22.347656 1.65625 -22.390625 C 1.425781 -22.484375 1.148438 -22.476562 0.828125 -22.375 L 0.140625 -22 C -0.179688 -21.851562 -0.382812 -21.726562 -0.46875 -21.625 L -1.015625 -21.125 C -1.335938 -20.832031 -1.585938 -20.566406 -1.765625 -20.328125 C -1.941406 -20.097656 -1.984375 -19.988281 -1.890625 -20 Z M -1.890625 -20 "/></g></g></g><g fill="currentColor" fill-opacity="1"><g transform="translate(76.290278, 71.761001)"><g><path d="M -1.25 -19.03125 C -1.789062 -18.96875 -2.132812 -18.941406 -2.28125 -18.953125 C -2.425781 -18.972656 -2.523438 -19.097656 -2.578125 -19.328125 C -2.679688 -19.566406 -2.597656 -19.921875 -2.328125 -20.390625 C -1.972656 -20.960938 -1.453125 -21.535156 -0.765625 -22.109375 C -0.0859375 -22.691406 0.597656 -23.113281 1.296875 -23.375 C 2.398438 -23.820312 3.03125 -23.859375 3.1875 -23.484375 C 3.226562 -23.296875 2.722656 -22.816406 1.671875 -22.046875 C 1.078125 -21.617188 0.582031 -21.289062 0.1875 -21.0625 C -0.195312 -20.832031 -0.566406 -20.664062 -0.921875 -20.5625 C -1.347656 -20.457031 -1.609375 -20.289062 -1.703125 -20.0625 C -1.867188 -19.863281 -1.882812 -19.75 -1.75 -19.71875 C -1.320312 -19.582031 0.84375 -20.4375 4.75 -22.28125 L 4.890625 -22.34375 L 5.09375 -22.34375 L 5.171875 -22.296875 C 5.359375 -22.203125 5.378906 -22.082031 5.234375 -21.9375 L 4.34375 -21.5 L 1.25 -20 C 0.65625 -19.664062 0.1875 -19.445312 -0.15625 -19.34375 C -0.507812 -19.238281 -0.875 -19.132812 -1.25 -19.03125 Z M -0.75 -21.359375 C -0.789062 -21.304688 -0.707031 -21.316406 -0.5 -21.390625 C -0.289062 -21.460938 -0.00390625 -21.597656 0.359375 -21.796875 C 0.679688 -21.992188 1.035156 -22.222656 1.421875 -22.484375 C 1.816406 -22.753906 2.03125 -22.914062 2.0625 -22.96875 C 2.0625 -23.0625 1.9375 -23.046875 1.6875 -22.921875 C 1.4375 -22.796875 1.195312 -22.679688 0.96875 -22.578125 C 0.726562 -22.523438 0.394531 -22.328125 -0.03125 -21.984375 C -0.457031 -21.648438 -0.695312 -21.441406 -0.75 -21.359375 Z M -0.75 -21.359375 "/></g></g></g><g fill="currentColor" fill-opacity="1"><g transform="translate(81.874203, 71.602485)"><g><path d="M -2.421875 -18.734375 C -2.609375 -18.535156 -2.816406 -18.457031 -3.046875 -18.5 C -3.273438 -18.539062 -3.375 -18.695312 -3.34375 -18.96875 C -3.289062 -19.0625 -3.128906 -19.300781 -2.859375 -19.6875 L -2.25 -20.46875 C -1.976562 -20.851562 -1.539062 -21.351562 -0.9375 -21.96875 C -0.332031 -22.59375 0.132812 -23.003906 0.46875 -23.203125 C 0.695312 -23.347656 0.90625 -23.398438 1.09375 -23.359375 C 1.507812 -23.222656 1.378906 -22.820312 0.703125 -22.15625 C 0.421875 -21.914062 0.234375 -21.734375 0.140625 -21.609375 C 0.0546875 -21.492188 0.0625 -21.457031 0.15625 -21.5 L 0.765625 -21.8125 C 0.953125 -21.90625 1.3125 -22.085938 1.84375 -22.359375 C 2.375 -22.628906 2.664062 -22.789062 2.71875 -22.84375 C 3.125 -23.039062 3.351562 -22.953125 3.40625 -22.578125 C 3.46875 -22.390625 3.566406 -22.300781 3.703125 -22.3125 C 3.929688 -22.3125 4.304688 -22.445312 4.828125 -22.71875 C 5.359375 -22.988281 5.785156 -23.222656 6.109375 -23.421875 C 6.335938 -23.578125 6.5 -23.65625 6.59375 -23.65625 C 6.59375 -23.65625 6.78125 -23.75 7.15625 -23.9375 C 7.601562 -24.320312 7.90625 -24.378906 8.0625 -24.109375 C 8.195312 -23.929688 8.082031 -23.648438 7.71875 -23.265625 C 7.539062 -23.117188 7.363281 -23.039062 7.1875 -23.03125 C 6.945312 -23.03125 6.734375 -22.976562 6.546875 -22.875 L 5.78125 -22.515625 L 4.6875 -21.921875 C 3.757812 -21.566406 3.113281 -21.476562 2.75 -21.65625 C 2.550781 -21.789062 2.316406 -21.804688 2.046875 -21.703125 L 1.28125 -21.265625 C 0.539062 -20.910156 0.0351562 -20.648438 -0.234375 -20.484375 C -0.503906 -20.316406 -0.707031 -20.160156 -0.84375 -20.015625 L -1.59375 -19.4375 C -1.726562 -19.34375 -1.875 -19.222656 -2.03125 -19.078125 C -2.195312 -18.941406 -2.328125 -18.828125 -2.421875 -18.734375 Z M -2.421875 -18.734375 "/></g></g></g><g fill="currentColor" fill-opacity="1"><g transform="translate(92.762849, 71.293378)"><g><path d="M -3.109375 -15.640625 C -3.234375 -15.585938 -3.378906 -15.582031 -3.546875 -15.625 C -3.722656 -15.664062 -3.8125 -15.734375 -3.8125 -15.828125 C -3.8125 -15.828125 -3.832031 -15.875 -3.875 -15.96875 C -3.914062 -16.0625 -3.988281 -16.125 -4.09375 -16.15625 C -4.238281 -16.300781 -4.316406 -16.554688 -4.328125 -16.921875 C -4.285156 -17.441406 -3.8125 -17.972656 -2.90625 -18.515625 L -2.15625 -19.078125 C -2.101562 -19.078125 -2.03125 -19.097656 -1.9375 -19.140625 C -1.84375 -19.191406 -1.726562 -19.242188 -1.59375 -19.296875 C -1.226562 -19.492188 -1.023438 -19.613281 -0.984375 -19.65625 C -0.984375 -19.75 -0.972656 -19.910156 -0.953125 -20.140625 C -0.929688 -20.378906 -0.925781 -20.660156 -0.9375 -20.984375 C -0.957031 -21.640625 -0.9375 -22.082031 -0.875 -22.3125 C -0.8125 -22.550781 -0.625 -22.769531 -0.3125 -22.96875 C 0.15625 -23.21875 0.457031 -23.269531 0.59375 -23.125 C 0.882812 -22.757812 0.773438 -22.503906 0.265625 -22.359375 C 0.0859375 -22.304688 -0.0078125 -22.234375 -0.03125 -22.140625 C -0.0507812 -22.046875 -0.101562 -21.765625 -0.1875 -21.296875 C -0.21875 -20.828125 -0.1875 -20.523438 -0.09375 -20.390625 C 0 -20.253906 0.164062 -20.234375 0.40625 -20.328125 C 0.675781 -20.523438 1.164062 -20.75 1.875 -21 C 2.59375 -21.25 3.320312 -21.476562 4.0625 -21.6875 C 4.800781 -21.90625 5.3125 -22.035156 5.59375 -22.078125 C 5.957031 -22.234375 6.1875 -22.242188 6.28125 -22.109375 C 6.476562 -21.921875 6.320312 -21.753906 5.8125 -21.609375 C 5.21875 -21.398438 4.582031 -21.191406 3.90625 -20.984375 C 3.238281 -20.773438 3.039062 -20.722656 3.3125 -20.828125 C 2.863281 -20.679688 2.425781 -20.53125 2 -20.375 C 1.582031 -20.226562 1.238281 -20.082031 0.96875 -19.9375 L 0.28125 -19.640625 C 0.0507812 -19.484375 -0.078125 -19.25 -0.109375 -18.9375 C -0.191406 -18.519531 -0.304688 -18.210938 -0.453125 -18.015625 C -0.578125 -17.691406 -0.945312 -17.238281 -1.5625 -16.65625 C -2.175781 -16.070312 -2.691406 -15.734375 -3.109375 -15.640625 Z M -3.125 -16.40625 C -2.9375 -16.414062 -2.613281 -16.65625 -2.15625 -17.125 C -1.800781 -17.507812 -1.566406 -17.796875 -1.453125 -17.984375 C -1.335938 -18.179688 -1.265625 -18.375 -1.234375 -18.5625 L -1.234375 -18.90625 L -1.71875 -18.609375 L -2.40625 -18.171875 C -2.445312 -18.117188 -2.675781 -17.957031 -3.09375 -17.6875 C -3.507812 -17.425781 -3.710938 -17.175781 -3.703125 -16.9375 C -3.691406 -16.570312 -3.5 -16.394531 -3.125 -16.40625 Z M -3.125 -16.40625 "/></g></g></g><g fill="currentColor" fill-opacity="1"><g transform="translate(99.533359, 71.101177)"><g><path d="M -1.375 -18.953125 C -1.644531 -18.910156 -1.816406 -18.894531 -1.890625 -18.90625 C -1.960938 -18.925781 -2.050781 -19.003906 -2.15625 -19.140625 C -2.351562 -19.421875 -2.328125 -19.816406 -2.078125 -20.328125 C -1.835938 -20.847656 -1.675781 -21.15625 -1.59375 -21.25 L -0.4375 -22.46875 L 0.125 -22.6875 L 0.265625 -22.640625 L 1.171875 -22.578125 C 1.410156 -22.585938 1.578125 -22.503906 1.671875 -22.328125 C 1.722656 -22.273438 1.75 -22.179688 1.75 -22.046875 L 1.765625 -21.421875 C 1.953125 -21.378906 2.144531 -21.3125 2.34375 -21.21875 C 2.757812 -21.09375 3.269531 -21.039062 3.875 -21.0625 C 5.082031 -21.09375 6.09375 -21.234375 6.90625 -21.484375 C 7.71875 -21.742188 8.441406 -22.023438 9.078125 -22.328125 C 9.222656 -22.472656 9.34375 -22.453125 9.4375 -22.265625 C 9.519531 -22.117188 9.476562 -22 9.3125 -21.90625 L 8.671875 -21.625 C 7.941406 -21.269531 7.113281 -21.007812 6.1875 -20.84375 C 5.257812 -20.675781 4.539062 -20.582031 4.03125 -20.5625 C 3.101562 -20.539062 2.285156 -20.59375 1.578125 -20.71875 L 1.375 -20.640625 C 1.1875 -20.359375 0.8125 -20.007812 0.25 -19.59375 C -0.3125 -19.1875 -0.851562 -18.972656 -1.375 -18.953125 Z M 0.78125 -21.75 C 0.875 -21.695312 0.914062 -21.71875 0.90625 -21.8125 C 0.863281 -21.8125 0.828125 -21.820312 0.796875 -21.84375 C 0.773438 -21.875 0.742188 -21.882812 0.703125 -21.875 C 0.566406 -21.875 0.59375 -21.832031 0.78125 -21.75 Z M -1.1875 -19.59375 C -1.144531 -19.59375 -1.003906 -19.601562 -0.765625 -19.625 C -0.535156 -19.65625 -0.265625 -19.816406 0.046875 -20.109375 C 0.503906 -20.492188 0.71875 -20.734375 0.6875 -20.828125 C 0.664062 -20.921875 0.632812 -20.988281 0.59375 -21.03125 L 0.15625 -21.234375 L -0.125 -21.4375 C -0.21875 -21.4375 -0.320312 -21.398438 -0.4375 -21.328125 C -0.550781 -21.253906 -0.71875 -21.070312 -0.9375 -20.78125 C -1.257812 -20.351562 -1.394531 -20.046875 -1.34375 -19.859375 C -1.289062 -19.679688 -1.238281 -19.59375 -1.1875 -19.59375 Z M -1.1875 -19.59375 "/></g></g></g><g fill="currentColor" fill-opacity="1"><g transform="translate(109.305218, 70.823774)"><g><path d="M 3.59375 -18.828125 C 2.75 -18.710938 2.132812 -18.804688 1.75 -19.109375 C 1.613281 -19.203125 1.515625 -19.410156 1.453125 -19.734375 C 1.398438 -20.066406 1.421875 -20.320312 1.515625 -20.5 L 1.640625 -20.71875 L 1.640625 -20.78125 L 1.78125 -21.0625 L 1.703125 -21.0625 C 1.378906 -20.863281 0.804688 -20.53125 -0.015625 -20.0625 C -0.835938 -19.601562 -1.410156 -19.253906 -1.734375 -19.015625 C -2.046875 -18.921875 -2.203125 -18.875 -2.203125 -18.875 C -2.347656 -18.875 -2.457031 -18.925781 -2.53125 -19.03125 C -2.601562 -19.132812 -2.617188 -19.234375 -2.578125 -19.328125 L -2.59375 -19.546875 C -2.175781 -19.972656 -1.859375 -20.472656 -1.640625 -21.046875 L -1.171875 -21.6875 C -0.773438 -22.300781 -0.429688 -22.453125 -0.140625 -22.140625 C 0.00390625 -21.953125 0.0078125 -21.71875 -0.125 -21.4375 L -0.59375 -20.65625 L 1.625 -21.6875 C 1.75 -21.78125 1.894531 -21.863281 2.0625 -21.9375 C 2.226562 -22.019531 2.332031 -22.082031 2.375 -22.125 C 2.875 -22.519531 3.148438 -22.53125 3.203125 -22.15625 C 3.265625 -21.78125 3.160156 -21.425781 2.890625 -21.09375 C 2.441406 -20.613281 2.269531 -20.238281 2.375 -19.96875 C 2.394531 -19.1875 4.0625 -19.347656 7.375 -20.453125 C 7.75 -20.554688 8.25 -20.742188 8.875 -21.015625 C 9.5 -21.296875 10.0625 -21.535156 10.5625 -21.734375 C 11.300781 -22.078125 11.820312 -22.300781 12.125 -22.40625 C 12.425781 -22.507812 12.597656 -22.539062 12.640625 -22.5 C 12.867188 -22.414062 12.914062 -22.320312 12.78125 -22.21875 C 12.65625 -22.125 12.40625 -22 12.03125 -21.84375 C 11.75 -21.75 11.550781 -21.675781 11.4375 -21.625 C 11.320312 -21.582031 11.128906 -21.484375 10.859375 -21.328125 L 10.4375 -21.109375 L 9.6875 -20.734375 L 8.71875 -20.296875 C 8.71875 -20.296875 8.265625 -20.128906 7.359375 -19.796875 C 6.460938 -19.472656 5.695312 -19.234375 5.0625 -19.078125 Z M 3.59375 -18.828125 "/></g></g></g></g></g><g transform="matrix(1, 0, 0, 1, 95, 8)"><g clip-path="url(#e68f5bd079)"><g fill="currentColor" fill-opacity="1"><g transform="translate(8.013357, 100.058825)"><g><path d="M 57.578125 -4.34375 C 57.460938 -4.269531 57.414062 -4.421875 57.4375 -4.796875 C 57.46875 -5.179688 57.582031 -5.585938 57.78125 -6.015625 L 58.765625 -8.5 L 60.15625 -11.34375 C 60.257812 -11.445312 60.320312 -11.554688 60.34375 -11.671875 C 60.363281 -11.796875 60.375 -11.859375 60.375 -11.859375 C 60.3125 -11.847656 60.363281 -11.9375 60.53125 -12.125 C 60.789062 -12.4375 61.613281 -13.867188 63 -16.421875 L 64.203125 -18.515625 L 65.734375 -21.078125 L 66.78125 -22.734375 L 67.796875 -24.203125 L 68.546875 -25.390625 C 68.648438 -25.515625 68.941406 -25.929688 69.421875 -26.640625 C 69.910156 -27.347656 70.15625 -27.734375 70.15625 -27.796875 C 70.144531 -27.910156 70.171875 -27.972656 70.234375 -27.984375 C 70.285156 -27.984375 70.460938 -28.226562 70.765625 -28.71875 L 71.40625 -29.546875 L 72.375 -31.109375 L 74.796875 -34.34375 L 75.625 -35.625 L 76.65625 -36.75 L 77.5 -37.953125 C 77.800781 -38.441406 78.175781 -38.953125 78.625 -39.484375 C 79.070312 -40.015625 79.398438 -40.40625 79.609375 -40.65625 C 79.878906 -40.96875 80.269531 -41.445312 80.78125 -42.09375 C 81.289062 -42.75 81.578125 -43.109375 81.640625 -43.171875 L 84 -45.984375 L 84.53125 -46.703125 L 82.890625 -45.703125 C 82.554688 -45.503906 82.285156 -45.285156 82.078125 -45.046875 C 82.035156 -44.859375 81.925781 -44.757812 81.75 -44.75 C 81.695312 -44.738281 81.359375 -44.515625 80.734375 -44.078125 C 80.117188 -43.648438 79.671875 -43.3125 79.390625 -43.0625 L 78.90625 -42.671875 C 78.800781 -42.597656 78.546875 -42.398438 78.140625 -42.078125 C 77.734375 -41.765625 77.421875 -41.515625 77.203125 -41.328125 L 76.5625 -40.921875 C 76.507812 -40.847656 76.390625 -40.726562 76.203125 -40.5625 C 76.015625 -40.40625 75.835938 -40.265625 75.671875 -40.140625 C 75.285156 -39.816406 75.066406 -39.65625 75.015625 -39.65625 C 74.953125 -39.644531 74.816406 -39.515625 74.609375 -39.265625 C 74.515625 -39.023438 74.410156 -38.898438 74.296875 -38.890625 L 72.265625 -37.484375 L 69 -35.046875 C 68.570312 -34.722656 68.269531 -34.554688 68.09375 -34.546875 C 67.976562 -34.535156 67.875 -34.4375 67.78125 -34.25 C 67.625 -34.0625 67.175781 -33.71875 66.4375 -33.21875 C 65.695312 -32.726562 65.03125 -32.3125 64.4375 -31.96875 C 63.21875 -31.289062 62.125 -30.878906 61.15625 -30.734375 C 60.195312 -30.585938 59.691406 -30.769531 59.640625 -31.28125 C 59.628906 -31.457031 59.800781 -31.960938 60.15625 -32.796875 C 60.507812 -33.640625 60.863281 -34.335938 61.21875 -34.890625 L 61.75 -35.8125 C 61.75 -35.863281 61.867188 -36.113281 62.109375 -36.5625 C 62.359375 -37.019531 62.625 -37.488281 62.90625 -37.96875 C 63.1875 -38.457031 63.347656 -38.738281 63.390625 -38.8125 L 63.9375 -39.71875 C 64.070312 -40.03125 64.316406 -40.441406 64.671875 -40.953125 C 65.035156 -41.472656 65.375 -41.945312 65.6875 -42.375 L 67.875 -45.171875 C 68.125 -45.484375 68.335938 -45.773438 68.515625 -46.046875 C 68.691406 -46.316406 68.75 -46.484375 68.6875 -46.546875 C 68.625 -46.597656 68.601562 -46.625 68.625 -46.625 C 68.65625 -46.625 68.707031 -46.597656 68.78125 -46.546875 C 68.894531 -46.554688 69.1875 -46.90625 69.65625 -47.59375 C 70.375 -48.519531 70.925781 -49.210938 71.3125 -49.671875 C 71.707031 -50.140625 72.351562 -50.878906 73.25 -51.890625 C 73.726562 -52.390625 74.132812 -52.835938 74.46875 -53.234375 C 74.8125 -53.640625 74.957031 -53.84375 74.90625 -53.84375 C 74.90625 -53.894531 75.03125 -54.078125 75.28125 -54.390625 C 75.539062 -54.703125 75.828125 -55.019531 76.140625 -55.34375 C 76.460938 -55.664062 76.65625 -55.828125 76.71875 -55.828125 C 76.832031 -55.835938 77.269531 -56.273438 78.03125 -57.140625 C 78.789062 -58.015625 79.429688 -58.765625 79.953125 -59.390625 C 80.472656 -60.078125 80.941406 -60.679688 81.359375 -61.203125 C 81.785156 -61.734375 82.300781 -62.398438 82.90625 -63.203125 C 83.070312 -63.390625 83.257812 -63.609375 83.46875 -63.859375 C 83.675781 -64.109375 83.828125 -64.351562 83.921875 -64.59375 C 84.171875 -65.019531 84.585938 -65.519531 85.171875 -66.09375 L 87.984375 -69.625 C 88.398438 -70.1875 88.753906 -70.484375 89.046875 -70.515625 C 90.128906 -70.609375 90.207031 -70.003906 89.28125 -68.703125 L 88.578125 -67.859375 L 87.953125 -67.03125 C 87.691406 -66.65625 87.441406 -66.328125 87.203125 -66.046875 C 86.972656 -65.765625 86.726562 -65.472656 86.46875 -65.171875 L 84.046875 -62.109375 L 82.421875 -59.96875 L 81.890625 -59.203125 L 81.09375 -58.296875 C 80.894531 -57.929688 80.546875 -57.476562 80.046875 -56.9375 C 79.546875 -56.394531 78.757812 -55.644531 77.6875 -54.6875 L 76.8125 -53.671875 L 74.4375 -51.109375 C 73.96875 -50.609375 73.5625 -50.171875 73.21875 -49.796875 C 72.875 -49.429688 72.703125 -49.21875 72.703125 -49.15625 C 72.703125 -49.15625 72.675781 -49.109375 72.625 -49.015625 C 72.582031 -48.929688 72.507812 -48.828125 72.40625 -48.703125 C 72.039062 -48.253906 71.710938 -47.84375 71.421875 -47.46875 C 71.140625 -47.101562 70.84375 -46.703125 70.53125 -46.265625 L 69.703125 -45.078125 L 67.8125 -42.828125 C 67.5 -42.390625 67.070312 -41.800781 66.53125 -41.0625 C 65.988281 -40.332031 65.566406 -39.71875 65.265625 -39.21875 L 64.4375 -37.9375 L 63.765625 -36.578125 C 63.617188 -36.285156 63.429688 -35.953125 63.203125 -35.578125 C 62.972656 -35.210938 62.8125 -34.910156 62.71875 -34.671875 L 62.109375 -33.65625 L 61.671875 -32.84375 C 61.617188 -32.664062 61.539062 -32.5 61.4375 -32.34375 C 61.332031 -32.195312 61.285156 -32.070312 61.296875 -31.96875 C 61.242188 -31.84375 61.25 -31.765625 61.3125 -31.734375 C 61.382812 -31.710938 61.585938 -31.75 61.921875 -31.84375 C 62.265625 -31.925781 62.753906 -32.109375 63.390625 -32.390625 C 64.035156 -32.671875 64.65625 -33 65.25 -33.375 C 65.851562 -33.75 66.203125 -34.03125 66.296875 -34.21875 C 66.398438 -34.34375 66.507812 -34.410156 66.625 -34.421875 C 66.6875 -34.421875 66.867188 -34.519531 67.171875 -34.71875 C 67.472656 -34.914062 67.8125 -35.148438 68.1875 -35.421875 L 69.734375 -36.515625 L 69.984375 -36.703125 C 70.515625 -37.203125 70.785156 -37.394531 70.796875 -37.28125 L 71.296875 -37.578125 L 71.78125 -37.96875 C 71.84375 -37.96875 72.085938 -38.132812 72.515625 -38.46875 C 72.941406 -38.800781 73.398438 -39.144531 73.890625 -39.5 C 74.390625 -39.863281 74.691406 -40.109375 74.796875 -40.234375 L 75.859375 -41.109375 C 76.078125 -41.242188 76.316406 -41.421875 76.578125 -41.640625 C 76.835938 -41.867188 77.078125 -42.078125 77.296875 -42.265625 L 78.1875 -42.953125 C 78.351562 -42.960938 78.597656 -43.15625 78.921875 -43.53125 C 79.398438 -43.988281 79.9375 -44.414062 80.53125 -44.8125 L 84.9375 -47.875 L 86.1875 -48.671875 C 86.351562 -48.753906 86.753906 -49.082031 87.390625 -49.65625 C 88.023438 -50.226562 88.71875 -50.894531 89.46875 -51.65625 C 90.21875 -52.414062 90.867188 -53.078125 91.421875 -53.640625 C 91.972656 -54.210938 92.25 -54.53125 92.25 -54.59375 C 92.238281 -54.707031 92.3125 -54.796875 92.46875 -54.859375 C 92.53125 -54.867188 92.664062 -54.96875 92.875 -55.15625 C 93.09375 -55.34375 93.304688 -55.5625 93.515625 -55.8125 C 94.253906 -56.6875 94.8125 -56.992188 95.1875 -56.734375 C 95.425781 -56.640625 95.484375 -56.46875 95.359375 -56.21875 C 95.234375 -55.976562 94.878906 -55.550781 94.296875 -54.9375 L 92.390625 -52.859375 C 91.921875 -52.347656 91.285156 -51.695312 90.484375 -50.90625 C 89.679688 -50.125 89.117188 -49.601562 88.796875 -49.34375 C 88.472656 -49.082031 88.035156 -48.632812 87.484375 -48 C 86.941406 -47.375 86.460938 -46.789062 86.046875 -46.25 C 85.640625 -45.632812 85.347656 -45.320312 85.171875 -45.3125 L 84.859375 -44.921875 C 84.816406 -44.804688 84.707031 -44.625 84.53125 -44.375 C 84.351562 -44.125 84.128906 -43.847656 83.859375 -43.546875 L 82.515625 -42.046875 C 82.304688 -41.796875 81.976562 -41.390625 81.53125 -40.828125 C 81.082031 -40.265625 80.34375 -39.359375 79.3125 -38.109375 L 76.03125 -34.015625 L 75.71875 -33.5625 L 68.40625 -23.140625 L 67.703125 -22.203125 L 66.1875 -19.734375 L 65.34375 -18.453125 L 65.203125 -18.171875 C 65.203125 -18.117188 65.078125 -17.875 64.828125 -17.4375 C 64.578125 -17.007812 64.394531 -16.765625 64.28125 -16.703125 C 64.28125 -16.703125 64.085938 -16.394531 63.703125 -15.78125 C 63.328125 -15.175781 62.925781 -14.519531 62.5 -13.8125 C 62.070312 -13.113281 61.738281 -12.519531 61.5 -12.03125 L 60.515625 -10.3125 L 59.25 -7.953125 L 58.453125 -6.15625 C 57.972656 -5.070312 57.679688 -4.46875 57.578125 -4.34375 Z M 9.453125 1.171875 L 8.75 0.96875 L 8.75 -0.078125 C 8.707031 -1.171875 9.046875 -1.890625 9.765625 -2.234375 C 10.085938 -2.378906 10.347656 -2.378906 10.546875 -2.234375 C 10.835938 -2.140625 10.90625 -1.675781 10.75 -0.84375 C 10.707031 -0.613281 10.726562 -0.488281 10.8125 -0.46875 C 10.90625 -0.445312 11.320312 -0.492188 12.0625 -0.609375 C 12.925781 -0.691406 13.6875 -0.90625 14.34375 -1.25 L 16.4375 -2.21875 C 16.882812 -2.425781 17.3125 -2.632812 17.71875 -2.84375 C 18.125 -3.050781 18.882812 -3.4375 20 -4 L 21.828125 -5.03125 L 23.125 -5.921875 C 23.289062 -5.992188 23.59375 -6.175781 24.03125 -6.46875 C 24.476562 -6.769531 24.914062 -7.082031 25.34375 -7.40625 L 27.046875 -8.671875 C 27.160156 -8.679688 27.570312 -8.984375 28.28125 -9.578125 C 28.863281 -10.085938 29.242188 -10.347656 29.421875 -10.359375 C 29.484375 -10.316406 29.640625 -10.503906 29.890625 -10.921875 C 29.984375 -11.046875 30.109375 -11.203125 30.265625 -11.390625 C 30.421875 -11.578125 30.523438 -11.707031 30.578125 -11.78125 L 31.3125 -12.53125 C 31.5625 -12.84375 31.800781 -13.007812 32.03125 -13.03125 C 32.3125 -13.164062 32.582031 -13.414062 32.84375 -13.78125 C 33.101562 -14.09375 33.289062 -14.253906 33.40625 -14.265625 C 33.625 -14.285156 33.8125 -14.445312 33.96875 -14.75 L 35.21875 -16.15625 C 35.875 -16.789062 36.191406 -17.195312 36.171875 -17.375 C 36.171875 -17.425781 36.359375 -17.554688 36.734375 -17.765625 C 36.847656 -17.828125 37.078125 -18.019531 37.421875 -18.34375 C 37.765625 -18.664062 38.125 -19.015625 38.5 -19.390625 C 39.238281 -20.210938 39.875 -20.882812 40.40625 -21.40625 C 40.9375 -21.9375 41.785156 -22.75 42.953125 -23.84375 L 45.015625 -26.03125 C 45.222656 -26.28125 45.351562 -26.40625 45.40625 -26.40625 C 45.40625 -26.40625 45.457031 -26.4375 45.5625 -26.5 C 45.675781 -26.570312 45.785156 -26.671875 45.890625 -26.796875 L 47.515625 -28.328125 L 51.734375 -32.40625 C 52.003906 -32.71875 52.195312 -32.878906 52.3125 -32.890625 C 52.488281 -32.910156 52.691406 -33.132812 52.921875 -33.5625 C 53.085938 -33.695312 53.300781 -33.898438 53.5625 -34.171875 C 53.832031 -34.453125 54.078125 -34.691406 54.296875 -34.890625 L 55.96875 -36.578125 C 56.707031 -37.398438 57.457031 -38.234375 58.21875 -39.078125 C 58.988281 -39.921875 59.398438 -40.347656 59.453125 -40.359375 C 59.515625 -40.359375 60.125 -41.003906 61.28125 -42.296875 C 62.4375 -43.585938 63.984375 -45.328125 65.921875 -47.515625 C 66.609375 -48.328125 67.210938 -49.015625 67.734375 -49.578125 C 68.253906 -50.140625 68.515625 -50.421875 68.515625 -50.421875 C 68.691406 -50.429688 68.851562 -50.59375 69 -50.90625 C 69.113281 -51.03125 69.25 -51.203125 69.40625 -51.421875 C 69.5625 -51.640625 69.691406 -51.8125 69.796875 -51.9375 L 70.984375 -53.25 C 71.128906 -53.425781 71.28125 -53.59375 71.4375 -53.75 C 71.59375 -53.90625 71.703125 -53.960938 71.765625 -53.921875 C 71.878906 -53.929688 71.957031 -54.019531 72 -54.1875 C 72.050781 -54.3125 72.335938 -54.6875 72.859375 -55.3125 C 73.378906 -55.9375 73.984375 -56.625 74.671875 -57.375 C 75.359375 -58.125 75.945312 -58.722656 76.4375 -59.171875 C 76.695312 -59.421875 76.90625 -59.640625 77.0625 -59.828125 C 77.21875 -60.015625 77.320312 -60.144531 77.375 -60.21875 C 77.476562 -60.394531 77.613281 -60.488281 77.78125 -60.5 C 77.957031 -60.519531 78.082031 -60.472656 78.15625 -60.359375 C 78.21875 -60.253906 78.007812 -59.921875 77.53125 -59.359375 C 77.0625 -58.796875 76.425781 -58.132812 75.625 -57.375 L 74.03125 -55.765625 C 72.601562 -54.253906 71.832031 -53.492188 71.71875 -53.484375 C 71.601562 -53.472656 71.503906 -53.316406 71.421875 -53.015625 C 71.335938 -52.722656 71.179688 -52.566406 70.953125 -52.546875 C 70.722656 -52.523438 70.640625 -52.429688 70.703125 -52.265625 C 70.722656 -52.097656 70.65625 -51.953125 70.5 -51.828125 C 70.269531 -51.691406 70.007812 -51.460938 69.71875 -51.140625 C 69.425781 -50.816406 69.285156 -50.597656 69.296875 -50.484375 C 69.304688 -50.429688 69.253906 -50.398438 69.140625 -50.390625 C 68.953125 -50.492188 68.6875 -50.210938 68.34375 -49.546875 C 67.9375 -48.878906 67.367188 -48.140625 66.640625 -47.328125 L 62.0625 -42.234375 L 61.265625 -41.296875 C 60.898438 -40.859375 60.410156 -40.328125 59.796875 -39.703125 C 59.191406 -39.078125 58.804688 -38.722656 58.640625 -38.640625 C 58.410156 -38.566406 58.253906 -38.378906 58.171875 -38.078125 C 58.140625 -37.847656 58.019531 -37.609375 57.8125 -37.359375 L 53.328125 -32.890625 C 53.222656 -32.765625 53.085938 -32.695312 52.921875 -32.6875 C 52.859375 -32.738281 52.707031 -32.648438 52.46875 -32.421875 C 52.238281 -32.203125 52.128906 -32.035156 52.140625 -31.921875 C 52.148438 -31.804688 52.007812 -31.578125 51.71875 -31.234375 C 51.425781 -30.898438 51.09375 -30.570312 50.71875 -30.25 C 50.175781 -29.789062 49.476562 -29.148438 48.625 -28.328125 C 47.78125 -27.503906 47.039062 -26.75 46.40625 -26.0625 L 38.765625 -18.359375 C 38.554688 -18.109375 38.289062 -17.828125 37.96875 -17.515625 C 37.65625 -17.203125 37.390625 -16.953125 37.171875 -16.765625 L 36.203125 -15.90625 L 34.78125 -14.390625 L 32.46875 -12.109375 L 30.609375 -10.390625 C 30.203125 -9.941406 29.90625 -9.632812 29.71875 -9.46875 C 29.53125 -9.3125 29.050781 -8.945312 28.28125 -8.375 L 26.578125 -7 C 26.359375 -6.8125 25.785156 -6.398438 24.859375 -5.765625 C 23.941406 -5.140625 22.878906 -4.457031 21.671875 -3.71875 C 20.460938 -2.976562 19.378906 -2.332031 18.421875 -1.78125 C 17.460938 -1.238281 16.835938 -0.921875 16.546875 -0.828125 C 16.378906 -0.816406 16.171875 -0.757812 15.921875 -0.65625 C 15.671875 -0.550781 15.46875 -0.429688 15.3125 -0.296875 C 14.15625 0.328125 13.023438 0.769531 11.921875 1.03125 C 10.816406 1.300781 9.992188 1.347656 9.453125 1.171875 Z M 9.453125 1.171875 "/></g></g></g><g fill="currentColor" fill-opacity="1"><g transform="translate(95.521621, 92.40868)"><g><path d="M -0.140625 -23.640625 C -0.429688 -23.609375 -0.679688 -23.726562 -0.890625 -24 C -1.140625 -24.269531 -1.222656 -24.582031 -1.140625 -24.9375 C -1.171875 -25.28125 -1.109375 -25.570312 -0.953125 -25.8125 L -0.75 -26.453125 C -0.757812 -26.515625 -0.960938 -26.394531 -1.359375 -26.09375 C -1.765625 -25.789062 -2.132812 -25.484375 -2.46875 -25.171875 C -2.789062 -24.910156 -3.265625 -24.578125 -3.890625 -24.171875 C -4.515625 -23.773438 -4.941406 -23.566406 -5.171875 -23.546875 C -5.691406 -23.492188 -5.96875 -23.640625 -6 -23.984375 C -6.019531 -24.160156 -5.835938 -24.441406 -5.453125 -24.828125 C -4.972656 -25.328125 -4.382812 -25.835938 -3.6875 -26.359375 C -2.988281 -26.878906 -2.335938 -27.335938 -1.734375 -27.734375 C -1.015625 -28.203125 -0.554688 -28.472656 -0.359375 -28.546875 C -0.171875 -28.617188 -0.046875 -28.578125 0.015625 -28.421875 C 0.0234375 -28.296875 0.175781 -28.242188 0.46875 -28.265625 C 0.976562 -28.316406 1.132812 -28.144531 0.9375 -27.75 C 0.738281 -27.363281 0.566406 -27.046875 0.421875 -26.796875 C 0.210938 -26.554688 0.03125 -26.210938 -0.125 -25.765625 C -0.289062 -25.316406 -0.269531 -24.898438 -0.0625 -24.515625 C 0 -24.335938 0.210938 -24.304688 0.578125 -24.421875 C 0.953125 -24.546875 1.140625 -24.609375 1.140625 -24.609375 C 1.703125 -24.773438 2.585938 -25.171875 3.796875 -25.796875 C 5.015625 -26.421875 6.535156 -27.21875 8.359375 -28.1875 L 8.515625 -28.28125 L 8.78125 -28.3125 L 8.890625 -28.234375 C 9.003906 -28.179688 9.0625 -28.113281 9.0625 -28.03125 C 9.070312 -27.945312 9.023438 -27.867188 8.921875 -27.796875 L 4.203125 -25.15625 C 3.441406 -24.675781 2.738281 -24.320312 2.09375 -24.09375 C 1.445312 -23.863281 1.125 -23.75 1.125 -23.75 L 0.875 -23.71875 C 0.53125 -23.625 0.191406 -23.597656 -0.140625 -23.640625 Z M -5.078125 -24.34375 L -4.578125 -24.5625 C -4.253906 -24.75 -3.816406 -25.039062 -3.265625 -25.4375 C -2.722656 -25.832031 -2.425781 -26.0625 -2.375 -26.125 C -2.15625 -26.375 -1.773438 -26.664062 -1.234375 -27 C -0.898438 -27.144531 -0.734375 -27.273438 -0.734375 -27.390625 C -0.742188 -27.503906 -0.804688 -27.539062 -0.921875 -27.5 C -1.035156 -27.457031 -1.3125 -27.273438 -1.75 -26.953125 C -2.3125 -26.679688 -2.859375 -26.316406 -3.390625 -25.859375 C -3.929688 -25.410156 -4.332031 -25.035156 -4.59375 -24.734375 Z M -5.078125 -24.34375 "/></g></g></g><g fill="currentColor" fill-opacity="1"><g transform="translate(106.524625, 91.446775)"><g><path d="M -0.53125 -21.875 C -1.144531 -21.757812 -1.597656 -21.71875 -1.890625 -21.75 C -2.191406 -21.789062 -2.519531 -21.820312 -2.875 -21.84375 C -3.457031 -21.90625 -3.894531 -22.15625 -4.1875 -22.59375 C -4.476562 -23.03125 -4.644531 -23.445312 -4.6875 -23.84375 C -4.726562 -24.3125 -4.648438 -24.738281 -4.453125 -25.125 C -4.265625 -25.507812 -3.984375 -25.925781 -3.609375 -26.375 C -2.878906 -27.226562 -2.101562 -27.910156 -1.28125 -28.421875 C -0.457031 -28.929688 0.234375 -29.242188 0.796875 -29.359375 C 0.972656 -29.421875 1.164062 -29.390625 1.375 -29.265625 C 1.59375 -29.148438 1.707031 -29.035156 1.71875 -28.921875 C 1.789062 -28.742188 1.628906 -28.378906 1.234375 -27.828125 C 0.847656 -27.273438 0.578125 -26.957031 0.421875 -26.875 C 0.242188 -26.863281 0.148438 -26.890625 0.140625 -26.953125 L 0.046875 -27.1875 C -0.0234375 -27.25 0.0664062 -27.488281 0.328125 -27.90625 L 0.71875 -28.390625 L 0.375 -28.359375 C -0.0195312 -28.265625 -0.582031 -27.910156 -1.3125 -27.296875 C -2.039062 -26.691406 -2.660156 -26.050781 -3.171875 -25.375 L -3.484375 -24.90625 C -3.691406 -24.601562 -3.765625 -24.273438 -3.703125 -23.921875 C -3.640625 -23.578125 -3.578125 -23.351562 -3.515625 -23.25 C -3.378906 -23.03125 -3.160156 -22.847656 -2.859375 -22.703125 C -2.554688 -22.554688 -2.03125 -22.515625 -1.28125 -22.578125 C 0.707031 -22.867188 2.515625 -23.316406 4.140625 -23.921875 C 5.765625 -24.523438 7.347656 -25.1875 8.890625 -25.90625 C 8.890625 -25.90625 9.164062 -26.054688 9.71875 -26.359375 C 10.28125 -26.671875 10.921875 -27 11.640625 -27.34375 C 12.359375 -27.695312 12.992188 -28.023438 13.546875 -28.328125 C 14.097656 -28.640625 14.375 -28.796875 14.375 -28.796875 C 14.550781 -28.867188 14.753906 -28.867188 14.984375 -28.796875 C 15.222656 -28.734375 15.035156 -28.535156 14.421875 -28.203125 L 14.171875 -28 C 13.242188 -27.457031 12.53125 -27.050781 12.03125 -26.78125 C 11.539062 -26.507812 11.070312 -26.28125 10.625 -26.09375 C 10.175781 -25.914062 9.59375 -25.617188 8.875 -25.203125 C 7.226562 -24.304688 5.53125 -23.578125 3.78125 -23.015625 C 2.039062 -22.460938 0.601562 -22.082031 -0.53125 -21.875 Z M -0.53125 -21.875 "/></g></g></g><g fill="currentColor" fill-opacity="1"><g transform="translate(123.28701, 89.981374)"><g><path d="M 26.796875 -49.984375 C 27.179688 -49.617188 27.171875 -49.097656 26.765625 -48.421875 C 26.640625 -48.128906 26.378906 -47.734375 25.984375 -47.234375 C 25.585938 -46.734375 25.28125 -46.414062 25.0625 -46.28125 L 23.859375 -45.21875 C 23.640625 -44.96875 23.351562 -44.710938 23 -44.453125 C 22.65625 -44.191406 22.378906 -43.96875 22.171875 -43.78125 L 20.9375 -42.890625 C 20.613281 -42.628906 20.363281 -42.492188 20.1875 -42.484375 C 19.96875 -42.347656 19.832031 -42.242188 19.78125 -42.171875 C 19.789062 -42.054688 19.65625 -41.929688 19.375 -41.796875 L 18.890625 -41.578125 C 18.566406 -41.378906 18.003906 -41.03125 17.203125 -40.53125 C 16.410156 -40.03125 15.570312 -39.523438 14.6875 -39.015625 C 13.8125 -38.503906 13.070312 -38.078125 12.46875 -37.734375 C 12.019531 -37.460938 11.707031 -37.316406 11.53125 -37.296875 C 11.363281 -37.285156 10.90625 -37.039062 10.15625 -36.5625 L 8.734375 -35.84375 C 8.679688 -35.769531 8.488281 -35.664062 8.15625 -35.53125 C 7.820312 -35.394531 7.382812 -35.160156 6.84375 -34.828125 L 3.6875 -33.078125 L 3.296875 -32.765625 L 1.953125 -31.171875 C 1.222656 -30.304688 0.425781 -29.359375 -0.4375 -28.328125 C -1.300781 -27.296875 -1.78125 -26.664062 -1.875 -26.4375 L -1.859375 -26.265625 C -1.796875 -26.210938 -1.65625 -26.253906 -1.4375 -26.390625 C -1.375 -26.390625 -1.34375 -26.40625 -1.34375 -26.4375 C -1.351562 -26.46875 -1.332031 -26.488281 -1.28125 -26.5 C -0.945312 -26.6875 -0.570312 -26.882812 -0.15625 -27.09375 C 0.25 -27.300781 0.789062 -27.550781 1.46875 -27.84375 C 2.363281 -28.207031 2.90625 -28.285156 3.09375 -28.078125 C 3.164062 -27.960938 3.066406 -27.722656 2.796875 -27.359375 C 2.066406 -26.484375 1.628906 -25.867188 1.484375 -25.515625 L 1.421875 -25.25 C 1.179688 -24.644531 1.117188 -24.347656 1.234375 -24.359375 L 1.40625 -24.375 L 1.765625 -24.5 C 2.203125 -24.71875 2.972656 -25.132812 4.078125 -25.75 C 5.179688 -26.363281 6.007812 -26.8125 6.5625 -27.09375 L 8.625 -28.21875 C 8.800781 -28.226562 8.972656 -28.222656 9.140625 -28.203125 C 9.316406 -28.191406 9.210938 -28.03125 8.828125 -27.71875 C 8.328125 -27.5 8.0625 -27.375 8.03125 -27.34375 C 8.007812 -27.320312 7.984375 -27.289062 7.953125 -27.25 C 7.929688 -27.21875 7.617188 -27.03125 7.015625 -26.6875 C 6.796875 -26.613281 6.617188 -26.5 6.484375 -26.34375 C 6.359375 -26.1875 6.238281 -26.101562 6.125 -26.09375 C 5.570312 -25.8125 5.253906 -25.625 5.171875 -25.53125 C 5.085938 -25.4375 4.90625 -25.320312 4.625 -25.1875 C 4.46875 -25.113281 3.972656 -24.847656 3.140625 -24.390625 C 2.316406 -23.941406 1.738281 -23.675781 1.40625 -23.59375 L 1.234375 -23.484375 C 1.066406 -23.421875 0.832031 -23.457031 0.53125 -23.59375 C 0.164062 -23.863281 0.09375 -24.351562 0.3125 -25.0625 L 0.53125 -25.59375 C 0.625 -25.894531 0.769531 -26.195312 0.96875 -26.5 C 1.175781 -26.800781 1.304688 -26.957031 1.359375 -26.96875 C 1.421875 -26.96875 1.445312 -27 1.4375 -27.0625 C 1.4375 -27.113281 1.296875 -27.070312 1.015625 -26.9375 L 0.109375 -26.515625 C -0.335938 -26.367188 -0.640625 -26.195312 -0.796875 -26 L -1.28125 -25.609375 L -1.375 -25.609375 L -1.859375 -25.3125 L -2.8125 -24.171875 L -2.96875 -24.078125 L -3.21875 -23.890625 L -3.453125 -23.59375 L -3.859375 -23.21875 L -4.09375 -23.015625 C -4.195312 -22.890625 -4.332031 -22.851562 -4.5 -22.90625 C -4.570312 -22.957031 -4.679688 -23.019531 -4.828125 -23.09375 C -4.972656 -23.164062 -5.050781 -23.257812 -5.0625 -23.375 C -5.082031 -23.539062 -5.03125 -23.71875 -4.90625 -23.90625 C -4.78125 -24.101562 -4.664062 -24.265625 -4.5625 -24.390625 L -3.859375 -25.3125 L -3.171875 -26.328125 L -2.859375 -26.6875 L -0.125 -30.140625 C 0.289062 -30.585938 0.613281 -30.960938 0.84375 -31.265625 C 1.082031 -31.566406 1.203125 -31.71875 1.203125 -31.71875 C 1.148438 -31.769531 1.023438 -31.753906 0.828125 -31.671875 C 0.628906 -31.597656 0.53125 -31.535156 0.53125 -31.484375 C 0.476562 -31.421875 0.410156 -31.382812 0.328125 -31.375 C 0.242188 -31.363281 0.171875 -31.332031 0.109375 -31.28125 L -1.375 -30.640625 C -1.820312 -30.484375 -2.128906 -30.34375 -2.296875 -30.21875 L -3.109375 -29.703125 C -3.554688 -29.546875 -3.835938 -29.460938 -3.953125 -29.453125 C -4.304688 -29.421875 -4.410156 -29.585938 -4.265625 -29.953125 C -4.160156 -30.078125 -3.941406 -30.210938 -3.609375 -30.359375 L -1.03125 -31.53125 L -0.1875 -31.9375 C -0.0820312 -32.0625 0.078125 -32.164062 0.296875 -32.25 C 0.628906 -32.445312 0.851562 -32.550781 0.96875 -32.5625 C 1.03125 -32.570312 1.070312 -32.59375 1.09375 -32.625 C 1.113281 -32.65625 1.125 -32.671875 1.125 -32.671875 C 1.125 -32.671875 1.375 -32.804688 1.875 -33.078125 L 2.625 -33.40625 C 2.738281 -33.53125 2.894531 -33.703125 3.09375 -33.921875 C 3.300781 -34.148438 3.515625 -34.390625 3.734375 -34.640625 L 6.4375 -37.46875 L 8.09375 -39.171875 L 10.65625 -41.546875 C 10.71875 -41.617188 10.972656 -41.847656 11.421875 -42.234375 C 11.878906 -42.617188 12.347656 -43.003906 12.828125 -43.390625 L 14.21875 -44.453125 L 14.9375 -45.046875 L 15.84375 -45.640625 C 17.75 -46.972656 19.679688 -48.015625 21.640625 -48.765625 L 22.328125 -49 C 22.753906 -49.257812 23.304688 -49.472656 23.984375 -49.640625 L 24.921875 -49.90625 C 25.367188 -50.050781 25.773438 -50.128906 26.140625 -50.140625 C 26.515625 -50.148438 26.734375 -50.097656 26.796875 -49.984375 Z M 26.078125 -48.625 C 26.078125 -48.625 26.085938 -48.65625 26.109375 -48.71875 C 26.140625 -48.78125 26.148438 -48.835938 26.140625 -48.890625 C 26.066406 -49.054688 25.9375 -49.160156 25.75 -49.203125 C 25.632812 -49.253906 25.304688 -49.226562 24.765625 -49.125 C 24.222656 -49.019531 23.894531 -48.929688 23.78125 -48.859375 L 22.46875 -48.3125 C 21.738281 -48.019531 20.875 -47.640625 19.875 -47.171875 C 18.875 -46.710938 17.988281 -46.242188 17.21875 -45.765625 C 16.175781 -45.097656 15.085938 -44.320312 13.953125 -43.4375 C 12.816406 -42.5625 11.953125 -41.835938 11.359375 -41.265625 L 10.734375 -40.6875 C 10.679688 -40.6875 10.375 -40.414062 9.8125 -39.875 C 9.25 -39.34375 8.609375 -38.710938 7.890625 -37.984375 C 7.179688 -37.253906 6.5625 -36.601562 6.03125 -36.03125 L 5.078125 -35.09375 C 5.023438 -35.09375 5.003906 -35.007812 5.015625 -34.84375 C 5.023438 -34.78125 5.304688 -34.890625 5.859375 -35.171875 C 6.128906 -35.304688 6.347656 -35.4375 6.515625 -35.5625 C 6.679688 -35.6875 6.789062 -35.75 6.84375 -35.75 C 6.957031 -35.757812 7.226562 -35.898438 7.65625 -36.171875 C 7.875 -36.304688 8.050781 -36.410156 8.1875 -36.484375 C 8.332031 -36.554688 8.4375 -36.597656 8.5 -36.609375 C 8.550781 -36.609375 8.851562 -36.75 9.40625 -37.03125 L 11.234375 -37.96875 L 12.875 -38.890625 L 14.0625 -39.4375 C 14.164062 -39.5 14.351562 -39.597656 14.625 -39.734375 C 14.90625 -39.878906 15.148438 -40.050781 15.359375 -40.25 L 16.9375 -41.15625 L 17.84375 -41.75 L 18.828125 -42.359375 L 21.609375 -44.25 C 22.148438 -44.644531 22.6875 -45.066406 23.21875 -45.515625 C 23.75 -45.960938 24.125 -46.3125 24.34375 -46.5625 L 25.140625 -47.328125 C 25.191406 -47.328125 25.347656 -47.539062 25.609375 -47.96875 Z M 26.078125 -48.625 "/></g></g></g><g fill="currentColor" fill-opacity="1"><g transform="translate(134.204055, 89.026985)"><g><path d="M -0.140625 -23.640625 C -0.429688 -23.609375 -0.679688 -23.726562 -0.890625 -24 C -1.140625 -24.269531 -1.222656 -24.582031 -1.140625 -24.9375 C -1.171875 -25.28125 -1.109375 -25.570312 -0.953125 -25.8125 L -0.75 -26.453125 C -0.757812 -26.515625 -0.960938 -26.394531 -1.359375 -26.09375 C -1.765625 -25.789062 -2.132812 -25.484375 -2.46875 -25.171875 C -2.789062 -24.910156 -3.265625 -24.578125 -3.890625 -24.171875 C -4.515625 -23.773438 -4.941406 -23.566406 -5.171875 -23.546875 C -5.691406 -23.492188 -5.96875 -23.640625 -6 -23.984375 C -6.019531 -24.160156 -5.835938 -24.441406 -5.453125 -24.828125 C -4.972656 -25.328125 -4.382812 -25.835938 -3.6875 -26.359375 C -2.988281 -26.878906 -2.335938 -27.335938 -1.734375 -27.734375 C -1.015625 -28.203125 -0.554688 -28.472656 -0.359375 -28.546875 C -0.171875 -28.617188 -0.046875 -28.578125 0.015625 -28.421875 C 0.0234375 -28.296875 0.175781 -28.242188 0.46875 -28.265625 C 0.976562 -28.316406 1.132812 -28.144531 0.9375 -27.75 C 0.738281 -27.363281 0.566406 -27.046875 0.421875 -26.796875 C 0.210938 -26.554688 0.03125 -26.210938 -0.125 -25.765625 C -0.289062 -25.316406 -0.269531 -24.898438 -0.0625 -24.515625 C 0 -24.335938 0.210938 -24.304688 0.578125 -24.421875 C 0.953125 -24.546875 1.140625 -24.609375 1.140625 -24.609375 C 1.703125 -24.773438 2.585938 -25.171875 3.796875 -25.796875 C 5.015625 -26.421875 6.535156 -27.21875 8.359375 -28.1875 L 8.515625 -28.28125 L 8.78125 -28.3125 L 8.890625 -28.234375 C 9.003906 -28.179688 9.0625 -28.113281 9.0625 -28.03125 C 9.070312 -27.945312 9.023438 -27.867188 8.921875 -27.796875 L 4.203125 -25.15625 C 3.441406 -24.675781 2.738281 -24.320312 2.09375 -24.09375 C 1.445312 -23.863281 1.125 -23.75 1.125 -23.75 L 0.875 -23.71875 C 0.53125 -23.625 0.191406 -23.597656 -0.140625 -23.640625 Z M -5.078125 -24.34375 L -4.578125 -24.5625 C -4.253906 -24.75 -3.816406 -25.039062 -3.265625 -25.4375 C -2.722656 -25.832031 -2.425781 -26.0625 -2.375 -26.125 C -2.15625 -26.375 -1.773438 -26.664062 -1.234375 -27 C -0.898438 -27.144531 -0.734375 -27.273438 -0.734375 -27.390625 C -0.742188 -27.503906 -0.804688 -27.539062 -0.921875 -27.5 C -1.035156 -27.457031 -1.3125 -27.273438 -1.75 -26.953125 C -2.3125 -26.679688 -2.859375 -26.316406 -3.390625 -25.859375 C -3.929688 -25.410156 -4.332031 -25.035156 -4.59375 -24.734375 Z M -5.078125 -24.34375 "/></g></g></g><g fill="currentColor" fill-opacity="1"><g transform="translate(145.207059, 88.065081)"><g><path d="M 0.203125 -20.625 C 0.0859375 -20.5625 -0.0546875 -20.566406 -0.234375 -20.640625 C -0.410156 -20.710938 -0.539062 -20.863281 -0.625 -21.09375 C -0.632812 -21.207031 -0.4375 -21.59375 -0.03125 -22.25 C 0.363281 -22.914062 0.867188 -23.695312 1.484375 -24.59375 C 2.097656 -25.488281 2.671875 -26.316406 3.203125 -27.078125 C 3.742188 -27.847656 4.148438 -28.390625 4.421875 -28.703125 C 4.628906 -28.898438 4.796875 -29.09375 4.921875 -29.28125 C 5.054688 -29.46875 5.125 -29.5625 5.125 -29.5625 C 5.0625 -29.550781 4.90625 -29.460938 4.65625 -29.296875 C 4.414062 -29.128906 4.109375 -28.914062 3.734375 -28.65625 L 0.96875 -26.59375 L 0.21875 -26.09375 L -0.578125 -25.59375 C -0.796875 -25.457031 -0.972656 -25.328125 -1.109375 -25.203125 C -1.253906 -25.078125 -1.351562 -25.007812 -1.40625 -25 L -1.734375 -24.796875 C -2.066406 -24.535156 -2.503906 -24.234375 -3.046875 -23.890625 C -3.597656 -23.554688 -4.09375 -23.3125 -4.53125 -23.15625 C -4.96875 -22.945312 -5.253906 -22.953125 -5.390625 -23.171875 C -5.523438 -23.390625 -5.472656 -23.71875 -5.234375 -24.15625 C -4.929688 -24.695312 -4.394531 -25.375 -3.625 -26.1875 C -2.863281 -27 -2.207031 -27.570312 -1.65625 -27.90625 C -0.144531 -28.976562 0.9375 -29.164062 1.59375 -28.46875 L 1.859375 -28.21875 L 2.4375 -28.625 L 3.71875 -29.609375 C 3.9375 -29.742188 4.222656 -29.941406 4.578125 -30.203125 C 4.941406 -30.460938 5.316406 -30.703125 5.703125 -30.921875 C 7.117188 -31.773438 8.171875 -32.609375 8.859375 -33.421875 L 11.90625 -37.15625 L 12.703125 -38.09375 C 13.328125 -38.789062 13.769531 -39.296875 14.03125 -39.609375 C 14.300781 -39.921875 14.664062 -40.382812 15.125 -41 C 15.695312 -41.738281 16.285156 -42.453125 16.890625 -43.140625 C 17.492188 -43.828125 17.984375 -44.304688 18.359375 -44.578125 L 19.71875 -45.8125 C 19.925781 -46.0625 20.175781 -46.3125 20.46875 -46.5625 C 20.769531 -46.820312 21.003906 -47.019531 21.171875 -47.15625 C 22.046875 -47.75 22.53125 -47.820312 22.625 -47.375 C 22.695312 -47.144531 22.488281 -46.601562 22 -45.75 C 21.382812 -44.78125 20.445312 -43.546875 19.1875 -42.046875 C 18.832031 -41.554688 18.210938 -40.878906 17.328125 -40.015625 C 16.453125 -39.160156 15.769531 -38.535156 15.28125 -38.140625 L 14.09375 -37 C 13.882812 -36.75 13.507812 -36.398438 12.96875 -35.953125 C 12.425781 -35.515625 12.015625 -35.191406 11.734375 -34.984375 L 10.5625 -33.921875 L 9.421875 -32.875 L 8 -31.296875 C 7.3125 -30.640625 6.4375 -29.601562 5.375 -28.1875 C 4.320312 -26.769531 3.285156 -25.265625 2.265625 -23.671875 Z M 12.59375 -36.265625 L 13.953125 -37.515625 L 15.21875 -38.75 C 15.488281 -39.007812 15.835938 -39.34375 16.265625 -39.75 C 16.691406 -40.164062 17.09375 -40.5625 17.46875 -40.9375 C 18.414062 -42.007812 19.082031 -42.78125 19.46875 -43.25 C 19.863281 -43.71875 20.238281 -44.222656 20.59375 -44.765625 C 21.164062 -45.617188 21.351562 -46.007812 21.15625 -45.9375 C 20.957031 -45.863281 20.320312 -45.347656 19.25 -44.390625 L 18.21875 -43.34375 L 17.59375 -42.59375 C 16.84375 -41.84375 16.242188 -41.097656 15.796875 -40.359375 L 14.78125 -39.15625 C 13.976562 -38.332031 13.351562 -37.625 12.90625 -37.03125 C 12.46875 -36.445312 12.363281 -36.191406 12.59375 -36.265625 Z M -3.796875 -24.53125 C -3.734375 -24.53125 -3.578125 -24.613281 -3.328125 -24.78125 C -3.085938 -24.957031 -2.832031 -25.140625 -2.5625 -25.328125 C -1.789062 -25.804688 -1.347656 -26.050781 -1.234375 -26.0625 C -1.179688 -26.113281 -1.085938 -26.191406 -0.953125 -26.296875 C -0.816406 -26.398438 -0.632812 -26.519531 -0.40625 -26.65625 C -0.09375 -26.84375 0.148438 -27.0625 0.328125 -27.3125 C 0.515625 -27.5625 0.546875 -27.707031 0.421875 -27.75 C 0.128906 -27.832031 -0.207031 -27.800781 -0.59375 -27.65625 L -1.421875 -27.15625 C -1.804688 -26.945312 -2.050781 -26.78125 -2.15625 -26.65625 L -2.796875 -26 C -3.171875 -25.625 -3.457031 -25.28125 -3.65625 -24.96875 C -3.863281 -24.664062 -3.910156 -24.519531 -3.796875 -24.53125 Z M -3.796875 -24.53125 "/></g></g></g><g fill="currentColor" fill-opacity="1"><g transform="translate(158.874847, 86.870215)"><g><path d="M -3.078125 -23.28125 C -3.410156 -23.195312 -3.625 -23.164062 -3.71875 -23.1875 C -3.8125 -23.207031 -3.921875 -23.300781 -4.046875 -23.46875 C -4.296875 -23.789062 -4.289062 -24.28125 -4.03125 -24.9375 C -3.78125 -25.59375 -3.601562 -25.988281 -3.5 -26.125 L -2.15625 -27.6875 L -1.484375 -28.015625 L -1.3125 -27.9375 L -0.1875 -27.96875 C 0.09375 -27.988281 0.300781 -27.890625 0.4375 -27.671875 C 0.5 -27.609375 0.535156 -27.492188 0.546875 -27.328125 L 0.625 -26.5625 C 0.851562 -26.53125 1.085938 -26.460938 1.328125 -26.359375 C 1.867188 -26.242188 2.507812 -26.21875 3.25 -26.28125 C 4.738281 -26.40625 5.96875 -26.648438 6.9375 -27.015625 C 7.914062 -27.390625 8.796875 -27.785156 9.578125 -28.203125 C 9.734375 -28.390625 9.875 -28.375 10 -28.15625 C 10.132812 -27.988281 10.09375 -27.835938 9.875 -27.703125 L 9.140625 -27.3125 C 8.253906 -26.820312 7.242188 -26.441406 6.109375 -26.171875 C 4.972656 -25.898438 4.097656 -25.738281 3.484375 -25.6875 C 2.328125 -25.582031 1.3125 -25.582031 0.4375 -25.6875 L 0.1875 -25.5625 C -0.0078125 -25.207031 -0.445312 -24.75 -1.125 -24.1875 C -1.800781 -23.632812 -2.453125 -23.332031 -3.078125 -23.28125 Z M -0.625 -26.890625 C -0.488281 -26.835938 -0.425781 -26.867188 -0.4375 -26.984375 C -0.5 -26.972656 -0.546875 -26.984375 -0.578125 -27.015625 C -0.617188 -27.046875 -0.664062 -27.054688 -0.71875 -27.046875 C -0.894531 -27.035156 -0.863281 -26.984375 -0.625 -26.890625 Z M -2.890625 -24.09375 C -2.828125 -24.09375 -2.65625 -24.117188 -2.375 -24.171875 C -2.09375 -24.222656 -1.765625 -24.441406 -1.390625 -24.828125 C -0.847656 -25.335938 -0.597656 -25.648438 -0.640625 -25.765625 C -0.679688 -25.878906 -0.734375 -25.957031 -0.796875 -26 L -1.328125 -26.21875 L -1.703125 -26.453125 C -1.816406 -26.441406 -1.941406 -26.382812 -2.078125 -26.28125 C -2.210938 -26.1875 -2.410156 -25.957031 -2.671875 -25.59375 C -3.023438 -25.03125 -3.160156 -24.632812 -3.078125 -24.40625 C -3.003906 -24.1875 -2.941406 -24.082031 -2.890625 -24.09375 Z M -2.890625 -24.09375 "/></g></g></g></g></g></svg>